<svg xmlns="http://www.w3.org/2000/svg" version="1.1" xmlns:xlink="http://www.w3.org/1999/xlink" xmlns:svgjs="http://svgjs.dev/svgjs" width="2000" height="1784" viewBox="0 0 2000 1784"><g transform="matrix(1,0,0,1,-3.0609739047379207,-2.8774193548387075)"><svg viewBox="0 0 278 248" data-background-color="#ffffff" preserveAspectRatio="xMidYMid meet" height="1784" width="2000" xmlns="http://www.w3.org/2000/svg" xmlns:xlink="http://www.w3.org/1999/xlink"><g id="tight-bounds" transform="matrix(1,0,0,1,0.4254753727585694,0.4000000000000057)"><svg viewBox="0 0 277.14904925448286 247.2" height="247.2" width="277.14904925448286"><g><svg viewBox="0 0 395.52 352.77964785736503" height="247.2" width="277.14904925448286"><g transform="matrix(1,0,0,1,0,218.03197519340685)"><svg viewBox="0 0 395.52 134.7476726639582" height="134.7476726639582" width="395.52"><g id="textblocktransform"><svg viewBox="0 0 395.52 134.7476726639582" height="134.7476726639582" width="395.52" id="textblock"><g><svg viewBox="0 0 395.52 134.7476726639582" height="134.7476726639582" width="395.52"><g transform="matrix(1,0,0,1,0,0)"><svg width="395.52" viewBox="1.46 -36.28 168.25 57.32" height="134.7476726639582" data-palette-color="#919591"><path d="M1.51-15.09L1.61-28.32 1.46-34.62Q1.46-35.4 2-35.84 2.54-36.28 3.32-36.28 4.1-36.28 4.74-35.86 5.37-35.45 5.22-34.72L5.22-34.72 5.57-13.62Q8.64-17.72 13.87-20.51L13.87-20.51Q18.21-22.85 21.48-22.85L21.48-22.85Q24.37-22.85 25.93-21L25.93-21Q27.1-19.53 27.1-17.11 27.1-14.7 26.2-12.92 25.29-11.13 23.83-9.5 22.36-7.86 20.46-6.45 18.55-5.03 16.6-3.91L16.6-3.91Q12.89-1.76 9.28-0.34L9.28-0.34Q8.98-0.44 8.3-0.39 7.62-0.34 6.64-0.34L6.64-0.34Q4-0.34 2-0.98L2-0.98Q1.51-5.62 1.51-15.09L1.51-15.09ZM5.71-4.35L5.71-4.35Q5.71-3.81 6.71-3.81 7.71-3.81 9.18-4.2 10.64-4.59 12.72-5.54 14.79-6.49 16.89-8.01L16.89-8.01Q21.78-11.47 24.27-16.16L24.27-16.16Q23.63-18.95 20.46-18.95L20.46-18.95Q17.58-18.95 13.96-16.8L13.96-16.8Q8.84-13.72 6.64-9.18L6.64-9.18Q5.71-7.37 5.71-5.52L5.71-5.52Q5.71-5.03 5.71-4.74 5.71-4.44 5.71-4.35ZM30.27-18.95Q30.17-21.58 30.08-23.66 29.98-25.73 29.95-26.73 29.93-27.73 29.15-31.64L29.15-31.64Q29.59-32.23 30-32.76 30.42-33.3 31.2-33.3L31.2-33.3Q32.91-33.3 33.84-18.9L33.84-18.9Q34.32-10.55 34.32-2.2L34.32-2.2Q34.32 0.05 31.2 0.05L31.2 0.05 30.81 0Q30.81-2.54 30.66-6.49 30.52-10.45 30.44-13.38 30.37-16.31 30.27-18.95ZM38.47-9.28L38.47-9.28Q38.47-15.04 43.45-18.55L43.45-18.55Q47.41-21.34 52.97-21.92L52.97-21.92Q53.27-21.92 54.34-21.92 55.41-21.92 57.22-21.29L57.22-21.29Q61.23-19.92 62.69-16.46L62.69-16.46Q63.28-15.09 63.28-14.14 63.28-13.18 63.23-12.79L63.23-12.79Q63.23-6.69 58.59-3.17L58.59-3.17Q54.29 0.05 47.85 0.05L47.85 0.05Q43.21 0.05 40.84-2.1 38.47-4.25 38.47-9.28ZM41.84-8.11L41.84-8.11Q41.84-5.08 43.45-4L43.45-4Q44.67-3.22 47.55-3.22 50.43-3.22 52.63-3.66 54.83-4.1 56.54-5.18L56.54-5.18Q60.2-7.52 60.2-12.45L60.2-12.45Q60.2-15.38 58.64-17.24L58.64-17.24Q56.93-19.24 54.15-19.24L54.15-19.24Q52.24-18.9 50.31-18.51 48.38-18.12 46.67-16.99L46.67-16.99Q42.96-14.6 41.84-8.11ZM79.48 20.9L79.48 20.9 78.8 20.85Q77.34 20.85 75.68 21.04L75.68 21.04 73.82 21.04Q70.89 21.04 69.23 19.92L69.23 19.92Q68.35 19.34 68.35 18.16L68.35 18.16 79.58 17.63Q84.76 17.48 84.76 12.06L84.76 12.06Q84.76 11.87 84.76 11.4 84.76 10.94 84.76 9.38L84.76 9.38 85-6.35Q85-7.18 84.95-7.71L84.95-7.71Q77.04-0.34 69.72-0.34L69.72-0.34Q69.08-0.34 68.45-0.39L68.45-0.39Q65.18-0.39 65.18-3.27L65.18-3.27Q65.28-5.52 66.5-8.23 67.72-10.94 69.65-13.45 71.57-15.97 74.02-17.97L74.02-17.97Q77.78-21.04 81.29-21.04L81.29-21.04Q85.39-21.04 88.03-16.7L88.03-16.7Q88.81-5.08 88.81-0.2 88.81 4.69 88.66 7.81 88.52 10.94 88.01 13.53 87.49 16.11 86.66 17.63 85.83 19.14 84.71 19.82L84.71 19.82Q82.85 20.9 79.48 20.9ZM82.41-17.48L82.41-17.48Q81.83-17.68 80.78-17.68 79.73-17.68 78.07-16.8 76.41-15.92 74.89-14.53 73.38-13.13 72.06-11.43L72.06-11.43Q68.84-7.23 68.84-4.74L68.84-4.74Q68.84-3.96 69.28-3.56L69.28-3.56Q69.62-3.37 70.13-3.37 70.65-3.37 71.62-3.54 72.6-3.71 74.28-4.42 75.97-5.13 77.78-6.25 79.58-7.37 81.05-8.74L81.05-8.74Q84.47-11.87 84.47-14.84L84.47-14.84Q84.47-16.65 82.41-17.48ZM110.34-8.11L110.34-8.11Q106.68-2.34 100.58-0.98L100.58-0.98Q99.16-0.68 98.01-0.68 96.87-0.68 96.11-0.71 95.35-0.73 94.42-0.93 93.5-1.12 92.71-1.56L92.71-1.56Q90.91-2.59 90.91-4.44L90.91-4.44Q90.71-5.32 90.71-6.42 90.71-7.52 91.2-9.33 91.69-11.13 92.98-13.23 94.28-15.33 96.13-17.09L96.13-17.09Q99.99-20.8 104.48-21.88L104.48-21.88Q105.8-22.17 106.9-22.17 108-22.17 108.88-22.02L108.88-22.02Q111.71-22.02 112.69-18.16L112.69-18.16Q113.32-15.72 113.44-11.35 113.56-6.98 113.69-4.61 113.81-2.25 114.3-0.29L114.3-0.29 111.42-0.29Q111.22-1.61 111.12-2.64 111.03-3.66 110.93-4.54L110.93-4.54Q110.68-6.59 110.34-8.11ZM110.15-15.67L110.15-15.67Q110.15-18.51 107.36-18.51L107.36-18.51Q107.02-18.55 106.68-18.55L106.68-18.55Q103.12-18.55 99.16-15.14L99.16-15.14Q97.3-13.57 95.99-11.62L95.99-11.62Q94.03-8.84 94.03-6.64L94.03-6.64Q94.03-3.76 97.35-3.22L97.35-3.22Q101.75-3.32 105.75-7.23L105.75-7.23Q107.46-8.94 108.58-10.94L108.58-10.94Q110.15-13.62 110.15-15.67ZM121.28-19.58L121.28-19.58Q127.92-21.88 132.75-21.88L132.75-21.88Q138.9-21.88 140.95-18.65L140.95-18.65Q141.88-17.14 141.88-15.38L141.88-15.38Q141.88-12.94 140.34-10.35 138.81-7.76 136.27-5.66L136.27-5.66Q130.36-0.83 121.91 0.34L121.91 0.34Q121.91 0.88 121.94 2.08 121.96 3.27 121.98 4.74 122.01 6.2 122.03 7.86 122.06 9.52 122.11 11.04L122.11 11.04Q122.25 14.79 122.33 15.33 122.4 15.87 122.4 16.21L122.4 16.21Q122.4 17.43 121.62 18.04 120.84 18.65 119.57 18.65L119.57 18.65Q119.32 18.65 119.08 18.65L119.08 18.65 118.3-20.61Q118.74-21.24 119.47-21.19 120.2-21.14 120.64-20.8 121.08-20.46 121.28-19.58ZM135.53-17.87L135.53-17.87Q133.92-18.7 132.09-18.7 130.26-18.7 128.45-18.36L128.45-18.36Q124.35-17.58 122.4-14.89L122.4-14.89Q121.52-13.62 121.52-11.77L121.52-11.77Q121.52-11.57 121.52-11.38L121.52-11.38 121.52-2.93Q131.58-5.18 135.78-9.18L135.78-9.18Q138.22-11.47 138.22-13.92L138.22-13.92Q138.22-16.5 135.53-17.87ZM149.11-19.58L149.11-19.58Q155.75-21.88 160.58-21.88L160.58-21.88Q166.73-21.88 168.78-18.65L168.78-18.65Q169.71-17.14 169.71-15.38L169.71-15.38Q169.71-12.94 168.17-10.35 166.64-7.76 164.1-5.66L164.1-5.66Q158.19-0.83 149.74 0.34L149.74 0.34Q149.74 0.88 149.77 2.08 149.79 3.27 149.81 4.74 149.84 6.2 149.86 7.86 149.89 9.52 149.94 11.04L149.94 11.04Q150.08 14.79 150.16 15.33 150.23 15.87 150.23 16.21L150.23 16.21Q150.23 17.43 149.45 18.04 148.67 18.65 147.4 18.65L147.4 18.65Q147.15 18.65 146.91 18.65L146.91 18.65 146.13-20.61Q146.57-21.24 147.3-21.19 148.03-21.14 148.47-20.8 148.91-20.46 149.11-19.58ZM163.36-17.87L163.36-17.87Q161.75-18.7 159.92-18.7 158.09-18.7 156.28-18.36L156.28-18.36Q152.18-17.58 150.23-14.89L150.23-14.89Q149.35-13.62 149.35-11.77L149.35-11.77Q149.35-11.57 149.35-11.38L149.35-11.38 149.35-2.93Q159.41-5.18 163.61-9.18L163.61-9.18Q166.05-11.47 166.05-13.92L166.05-13.92Q166.05-16.5 163.36-17.87Z" opacity="1" transform="matrix(1,0,0,1,0,0)" fill="#000000" class="wordmark-text-0" data-fill-palette-color="primary" id="text-0"></path></svg></g></svg></g></svg></g></svg></g><g transform="matrix(1,0,0,1,93.18021221185467,0)"><svg viewBox="0 0 209.15957557629065 186.22128362159026" height="186.22128362159026" width="209.15957557629065"><g><svg xmlns="http://www.w3.org/2000/svg" xmlns:xlink="http://www.w3.org/1999/xlink" version="1.1" x="8" y="0" viewBox="0 1.796 100 96.40799999999999" enable-background="new 0 0 100 100" xml:space="preserve" height="186.22128362159026" width="193.15957557629065" class="icon-icon-0" data-fill-palette-color="accent" id="icon-0"><polygon points="66.744,76.101 66.744,90.788 7.416,90.788 7.416,9.212 66.744,9.212 66.744,23.668 74.16,16.252 74.16,1.796   0,1.796 0,98.204 74.16,98.204 74.16,68.685 " fill="#000000" data-fill-palette-color="accent"></polygon><polygon points="52.81,74.305 37.08,79.547 42.323,63.818 89.513,16.628 100,27.115 " fill="#000000" data-fill-palette-color="accent"></polygon></svg></g></svg></g><g><rect width="33.994736839096106" height="12.151684180433943" y="173.06959944115633" x="302.3397877881453" fill="#000000" data-fill-palette-color="accent"></rect><rect width="33.994736839096106" height="12.151684180433943" y="173.06959944115633" x="59.18547537275856" fill="#000000" data-fill-palette-color="accent"></rect><rect width="33.994736839096106" height="12.151684180433943" y="148.76623108028843" x="302.3397877881453" fill="#000000" data-fill-palette-color="accent"></rect><rect width="33.994736839096106" height="12.151684180433943" y="148.76623108028843" x="59.18547537275856" fill="#000000" data-fill-palette-color="accent"></rect></g></svg></g><defs></defs></svg><rect width="277.14904925448286" height="247.2" fill="none" stroke="none" visibility="hidden"></rect></g></svg></g></svg>